<svg
  id="eHpUDbdyFS01"
  xmlns="http://www.w3.org/2000/svg"
  xmlns:xlink="http://www.w3.org/1999/xlink"
  viewBox="0 0 1052.52 207.23"
  shape-rendering="geometricPrecision"
  text-rendering="geometricPrecision"
  style="background-color:black"
>
  <style>
    <![CDATA[
      #rectangle {
        animation: rectangle__rd 3s linear 1 normal forwards
      }
      path,rect {
        -webkit-filter: invert(100%); /* safari 6.0 - 9.0 */
                filter: invert(100%);
      }
      @keyframes rectangle__rd {
        0% {
          rx: 25.91px;
          ry: 25.91px;
        }
        66.666667% {
          rx: 25.91px;
          ry: 25.91px;
        }
        100% {
          rx: 0px;
          ry: 0px
        }
      }

      #rectangle_to {
        animation: rectangle_to__to 3000ms linear 1 normal forwards
      }

      @keyframes rectangle_to__to {
        0% {
          transform: translate(231.711798px,247.709999px)
        }
        66.666667% {
          transform: translate(231.711798px,247.709999px)
        }
        100% {
          transform: translate(205.81px,273.61px)
        }
      }

      #eHpUDbdyFS04_tr {
        animation: eHpUDbdyFS04_tr__tr 3000ms linear 1 normal forwards
      }

      @keyframes eHpUDbdyFS04_tr__tr {
        0% {
          transform: translate(257.609985px,273.61499px) rotate(-719.999998deg)
        }
        100% {
          transform: translate(257.609985px,273.61499px) rotate(0deg)
        }
      }

      .letter-c,
    .letter-y,
    .letter-p,
    .letter-h,
    .letter-e,
    .letter-r {
      stroke: currentColor;
      stroke-width: 1px;
      fill-opacity: 0;
      animation: line-stroke 1s linear forwards;
    }

    .letter-c {
      stroke-dasharray: 433.44;
      stroke-dashoffset: 433.44;
      animation-delay: 0s;
    }
    .letter-y {
      stroke-dasharray: 392.88;
      stroke-dashoffset: 392.88;
      animation-delay: 0.5s;
    }
    .letter-p {
      stroke-dasharray: 473.47;
      stroke-dashoffset: 473.47;
      animation-delay: 1s;
    }
    .letter-h {
      stroke-dasharray: 431.79;
      stroke-dashoffset: 431.79;
      animation-delay: 1.5s;
    }
    .letter-e {
      stroke-dasharray: 423.83;
      stroke-dashoffset: 423.83;
      animation-delay: 2s;
    }
    .letter-r {
      stroke-dasharray: 241.41;
      stroke-dashoffset: 241.41;
      animation-delay: 2.5s;
    }

    .word-desk {
      opacity: 0;
      animation: word .8s linear forwards;
      animation-delay: 3s;
    }

    @keyframes line-stroke {
      75% {
        stroke-dashoffset: 0;
        fill-opacity: 0;
      }
      100% {
        fill-opacity: 1;
      }
    }
    @keyframes word {
      100% {
        opacity: 1;
      }
    }
    ]]>
  </style>
  <g transform="translate(-154-170)" >
    <g id="rectangle_to" transform="translate(231.711798,247.709999)">
      <rect
        id="rectangle"
        width="51.81"
        height="51.81"
        rx="25.91"
        ry="25.91"
        transform="translate(0,0)"
      />
    </g>
    <g
      id="eHpUDbdyFS04_tr"
      transform="translate(257.609985,273.61499) rotate(-719.999998)"
    >
      <g transform="translate(-257.609985,-273.61499)">
        <path
          d="M51.81,103.61h-51.81C0.00883,46.399244,46.379247,0.019875,103.59,0l.02,51.81c-28.60835,0-51.8,23.19165-51.8,51.8Z"
          transform="translate(154 170)"
          fill-rule="evenodd"
        />
        <path
          d="M155.41,103.61h51.81c-.004415,57.218107-46.381895,103.60454-103.6,103.62l-.01-51.81c28.60652-.004417,51.795583-23.19348,51.8-51.8Z"
          transform="translate(154 170)"
          fill-rule="evenodd"
        />
      </g>
    </g>
    <path
      class="letter-p"
      d="M446.48,71.82h16.24v11.86c2.578022-3.744867,5.854615-6.956946,9.65-9.46q5.78-3.82,14.36-3.83c4.209561-.010302,8.379586.812148,12.27,2.42c3.961807,1.625735,7.548797,4.045423,10.54,7.11c3.20791,3.329339,5.741156,7.248059,7.46,11.54c1.952,5,1.973,26.661.06,31.67-1.666585,4.299937-4.175723,8.22344-7.38,11.54-3.005997,3.074686-6.614735,5.495264-10.6,7.11-3.898118,1.592737-8.069046,2.411299-12.28,2.41q-8.72,0-14.49-3.75c-3.658942-2.327465-6.881128-5.27888-9.52-8.72v32.47h-16.28v-92.32ZM483,130.1c2.699374.017475,5.372802-.527427,7.85-1.6c2.428741-1.054569,4.621821-2.584626,6.45-4.5c1.912357-2.05597,3.394699-4.473276,4.36-7.11c1.104915-3.029601,1.647147-6.235547,1.6-9.46v-.27c.040856-3.178352-.501445-6.337255-1.6-9.32-.974353-2.653242-2.455146-5.091797-4.36-7.18-3.688402-3.973996-8.878277-6.213264-14.3-6.17-2.718271-.012509-5.410285.532019-7.91,1.6-2.489623,1.072217-4.730057,2.648692-6.58,4.63-1.929636,2.097492-3.458253,4.531077-4.51,7.18-1.151928,2.949442-1.722408,6.093875-1.68,9.26v.27c-.038656,3.188558.531543,6.355199,1.68,9.33c1.024352,2.655154,2.548565,5.089142,4.49,7.17c3.778749,3.969783,9.029392,6.202483,14.51,6.17Z"
      transform="translate(154.532383 170)"
      stroke="#0900ff"
      stroke-width="4"
      stroke-dasharray="473.47132"
    />
    <path
      class="letter-h"
      d="M530.48,45.55h16.23v38.16c1.151137-1.686842,2.431661-3.281646,3.83-4.77c1.435984-1.526556,3.054888-2.870045,4.82-4c1.868057-1.178304,3.886161-2.099905,6-2.74c2.415755-.704851,4.923867-1.041963,7.44-1q12.07,0,18.65,7.39t6.57,19.85v45.09h-16.18v-40.23q0-8.33-4-12.82t-11.16-4.48c-4.330188-.16872-8.527211,1.515181-11.54,4.63q-4.42,4.62-4.43,12.95v40h-16.23v-98Z"
      transform="translate(154 170)"
      stroke="#0900ff"
      stroke-width="4"
      stroke-dasharray="431.794882"
    />
    <path
      class="letter-e"
      d="M659.75,101.15c-.241649-2.531935-.830504-5.018584-1.75-7.39-.831795-2.212383-2.073509-4.247981-3.66-6-1.546508-1.679992-3.408565-3.039158-5.48-4-2.276264-1.02818-4.75274-1.537138-7.25-1.49-4.729612-.135487-9.290798,1.761064-12.53,5.21-3.419719,3.772043-5.524886,8.550774-6,13.62Zm-16.25,42.4c-4.940254.04128-9.841336-.879159-14.43-2.71-8.855898-3.490033-15.886051-10.469558-19.44-19.3-1.945127-4.797096-2.914023-9.933945-2.85-15.11v-.27c-.036268-4.947382.838299-9.859193,2.58-14.49c1.63307-4.382011,4.094534-8.408627,7.25-11.86c3.089278-3.381605,6.831074-6.102911,11-8c4.429517-1.98305,9.237209-2.979392,14.09-2.92c5.171803-.109848,10.300947.957014,15,3.12c4.144597,1.973258,7.799244,4.842327,10.7,8.4c2.901685,3.64175,5.083834,7.802427,6.43,12.26c1.46489,4.761539,2.196601,9.718288,2.17,14.7c0,.72,0,1.46-.07,2.24s-.11,1.55-.2,2.36h-52.55q1.35,8.8,7,13.48c3.829072,3.147854,8.6648,4.80947,13.62,4.68c3.625858.094816,7.226047-.633427,10.53-2.13c3.252611-1.643906,6.225765-3.790246,8.81-6.36l9.62,8.53c-3.397638,4.032943-7.565628,7.347617-12.26,9.75-5.292141,2.562798-11.122098,3.817954-17,3.66Z"
      transform="translate(154 170)"
      stroke="#0900ff"
      stroke-width="4"
      stroke-dasharray="423.82692"
    />
    <path
      class="letter-r"
      d="M694.59,70.39h16.41v16.13c2.022354-5.095754,5.338013-9.576374,9.62-13q6.23-4.87,15.71-4.47v17.33h-.95c-3.378015-.040524-6.733354.556584-9.89,1.76-2.942093,1.153389-5.582378,2.9626-7.72,5.29-2.284705,2.563011-3.990101,5.588384-5,8.87-1.2454,4.009534-1.842915,8.192135-1.77,12.39v27.23h-16.41Z"
      transform="translate(154.532382 170)"
      stroke="#0900ff"
      stroke-width="4"
      stroke-dasharray="241.409978"
    />
    <path
      class="word-desk"
      d="M952.89,143.28c3.311037.031678,6.606932-.450731,9.77-1.43c2.877966-.84745,5.566579-2.239282,7.92-4.1c2.23979-1.771611,4.04851-4.028236,5.29-6.6c1.310693-2.771378,1.974081-5.8045,1.94-8.87v-.28c.0508-2.796414-.639217-5.556482-2-8-1.300253-2.204091-3.072735-4.09269-5.19-5.53-2.25083-1.546151-4.677956-2.818461-7.23-3.79q-3.95-1.55-8.08-2.73c-2.35-.7-4.6-1.42-6.75-2.14-1.978645-.670827-3.901277-1.496723-5.75-2.47-1.526268-.782994-2.88501-1.856401-4-3.16-.964425-1.22205-1.489288-2.733234-1.49-4.29v-.27c-.007402-1.867911.581113-3.689505,1.68-5.2c1.19741-1.615861,2.821519-2.865974,4.69-3.61c2.276608-.932654,4.720241-1.388709,7.18-1.34c3.567741.037995,7.106192.649121,10.48,1.81c3.612922,1.229999,7.056655,2.909869,10.25,5l4.74-7.86c-2.472266-1.617745-5.094327-2.994075-7.83-4.11-2.792026-1.14352-5.680019-2.037025-8.63-2.67-2.87016-.639169-5.799643-.97435-8.74-1-3.240243-.028389-6.464212.461114-9.55,1.45-2.768247.865476-5.344795,2.253892-7.59,4.09-2.118959,1.705613-3.827694,3.865453-5,6.32-1.194843,2.574339-1.802824,5.381981-1.78,8.22v.28c-.055664,2.832524.66356,5.626434,2.08,8.08c1.357136,2.206946,3.200749,4.074502,5.39,5.46c2.332894,1.499698,4.83322,2.721334,7.45,3.64c2.71,1,5.47,1.83,8.25,2.59c2.32.64,4.53,1.32,6.61,2c1.936329.634617,3.80537,1.458602,5.58,2.46c1.501045.821207,2.815406,1.944883,3.86,3.3.945668,1.323033,1.443255,2.913912,1.42,4.54v.27c.033411,2.119121-.634569,4.18986-1.9,5.89-1.318879,1.720257-3.08223,3.047957-5.1,3.84-2.381576.94723-4.927323,1.412874-7.49,1.37-4.231758-.031363-8.424027-.81699-12.38-2.32-4.250982-1.631743-8.247807-3.860807-11.87-6.62l-5.23,7.5c2.706488,2.166156,5.652387,4.014892,8.78,5.51c3.200454,1.521292,6.55229,2.701138,10,3.52c3.347.8306,6.781502,1.256975,10.23,1.27Zm-73,.27c3.998483.044021,7.980491-.519057,11.81-1.67c3.348498-1.029313,6.518859-2.567275,9.4-4.56c2.809156-1.999103,5.376388-4.318001,7.65-6.91l-6.51-5.82c-1.838337,1.960497-3.891226,3.708136-6.12,5.21-2.227407,1.487748-4.659593,2.643204-7.22,3.43-2.831282.849101-5.774261,1.267119-8.73,1.24-3.038638.025735-6.055901-.509914-8.9-1.58-2.784661-1.0272-5.344836-2.582319-7.54-4.58-2.297721-2.094318-4.162852-4.618529-5.49-7.43-1.489669-3.189608-2.413426-6.613935-2.73-10.12h55.54c.072961-.547105.113033-1.098095.12-1.65c0-.49,0-1.08,0-1.73.034026-4.877384-.69823-9.729847-2.17-14.38-1.355706-4.289611-3.517725-8.281031-6.37-11.76-2.790563-3.366356-6.290719-6.074281-10.25-7.93-12.976253-5.977868-28.331663-2.830637-37.91,7.77-3.048171,3.383752-5.423848,7.317194-7,11.59-1.692192,4.542187-2.549308,9.352877-2.53,14.2v.27c-.039712,5.074602.897319,10.10945,2.76,14.83c1.708829,4.302456,4.266298,8.21688,7.52,11.51c3.151889,3.220583,6.933957,5.756713,11.11,7.45c4.301164,1.768422,8.90952,2.669022,13.56,2.65ZM855.54,103c.309667-3.27291,1.126075-6.477817,2.42-9.5c1.183009-2.778852,2.841137-5.330337,4.9-7.54c1.948889-2.117277,4.306234-3.818103,6.93-5c2.673313-1.208854,5.576118-1.826255,8.51-1.81c3.181978-.040816,6.333702.621627,9.23,1.94c2.608198,1.224695,4.920971,2.998504,6.78,5.2c1.873234,2.266426,3.344498,4.836912,4.35,7.6c1.075187,2.928912,1.747991,5.99017,2,9.1ZM749,141.92h32.92c5.649132.028011,11.271985-.77044,16.69-2.37c4.964899-1.463687,9.666523-3.704806,13.93-6.64c8.225192-5.603187,14.364458-13.771294,17.46-23.23c1.572301-4.903073,2.371871-10.020995,2.37-15.17v-.27c.026246-6.393104-1.224902-12.727038-3.68-18.63-2.368685-5.66321-5.890004-10.771507-10.34-15-4.592192-4.342342-10.004462-7.725011-15.92-9.95-6.543754-2.437413-13.477227-3.660768-20.46-3.61h-32.97v94.82ZM781.93,57c5.555145-.054815,11.071036.935739,16.26,2.92c4.633074,1.780817,8.845477,4.505087,12.37,8c3.425628,3.387295,6.115089,7.445317,7.9,11.92c1.85795,4.68355,2.795067,9.681509,2.76,14.72v.27c.039033,5.025868-.898318,10.011488-2.76,14.68-1.789914,4.445632-4.479528,8.473244-7.9,11.83-3.542635,3.442977-7.752308,6.124644-12.37,7.88-5.204586,1.91248-10.71566,2.854718-16.26,2.78h-22.21v-75Zm208.46,84.92h10.43v-18.28l14.23-14.37l25,32.65h12.47l-30.35-40l29.4-30.08h-13l-37.79,39.43v-68.27h-10.39v98.89Z"
      transform="translate(154 170)"
      opacity="0"
    />
    <path
      class="letter-c"
      d="M310.4,143.55c-6.605045.065839-13.153373-1.224086-19.24-3.79-5.711167-2.423302-10.88957-5.946926-15.24-10.37-4.339011-4.465402-7.766222-9.733593-10.09-15.51-2.460061-6.065246-3.703645-12.554986-3.66-19.1v-.27c-.043372-6.505906,1.175818-12.958442,3.59-19c4.665264-11.793871,13.865182-21.224327,25.54-26.18c6.253687-2.634976,12.984445-3.949125,19.77-3.86c3.979336-.033466,7.952162.328309,11.86,1.08c3.372257.665448,6.664125,1.687872,9.82,3.05c2.901848,1.271677,5.666197,2.836466,8.25,4.67c2.529486,1.82715,4.925554,3.832228,7.17,6L337.47,72.6c-3.590583-3.412125-7.639602-6.306686-12.03-8.6-4.503947-2.227128-9.476331-3.341628-14.5-3.25-4.318974-.041882-8.595082.85907-12.53,2.64-3.779811,1.700748-7.180182,4.142214-10,7.18-2.810934,3.105443-4.988352,6.729944-6.41,10.67-1.549422,4.157796-2.328801,8.562979-2.3,13v.27c-.023569,4.459363.755512,8.886577,2.3,13.07c1.450592,3.976186,3.657946,7.633601,6.5,10.77c2.805493,3.071703,6.208226,5.538685,10,7.25c3.934918,1.78093,8.211026,2.681882,12.53,2.64c5.168076.143337,10.291016-.997385,14.91-3.32c4.4835-2.446867,8.625691-5.472818,12.32-9l10.7,10.84c-2.350287,2.542628-4.909215,4.88413-7.65,7-2.684423,2.040919-5.565284,3.809633-8.6,5.28-3.216079,1.537022-6.607862,2.675452-10.1,3.39-3.989379.801308-8.051107,1.186703-12.12,1.15Z"
      transform="translate(154 180)"
      stroke="#0900ff"
      stroke-width="4"
      stroke-dasharray="433.442591"
    />
    <path
      class="letter-y"
      d="M379.08,164c-3.085449.045887-6.162086-.341217-9.14-1.15-2.70248-.779624-5.313959-1.845671-7.79-3.18l5.55-12.19c1.497278.80481,3.063513,1.474141,4.68,2c1.597972.503967,3.264456.756975,4.94.75c2.085189.079602,4.137183-.539868,5.83-1.76c1.53-1.18,3-3.34,4.33-6.51l-29.8-71.53h17.47l20.32,53.11L414,70.39h17.1L402.65,144c-1.217274,3.236666-2.712874,6.3617-4.47,9.34-1.36443,2.326765-3.10462,4.411614-5.15,6.17-1.83099,1.546464-3.947645,2.718609-6.23,3.45-2.502403.755223-5.106416,1.119515-7.72,1.08Z"
      transform="translate(154 170.073707)"
      stroke="#0900ff"
      stroke-width="4"
      stroke-dasharray="392.882781"
    />
  </g>
</svg>
